<svg xmlns="http://www.w3.org/2000/svg" viewBox="0 0 80 70">
  <g stroke="#292537" stroke-width="1.4" stroke-linecap="round" stroke-linejoin="round">
    <!-- Oversized round head with black hair above the ears. -->
    <path d="M10 36 Q5 3 40 3 Q75 3 70 36Z" fill="#191923"/>
    <!-- Soft blue locks from ear height to the tiny shoulders. -->
    <path d="M10 32 L24 32 L27 54 Q24 68 11 64 Q6 63 9 58 Q5 52 10 32Z" fill="#6faeff"/>
    <path d="M56 32 L70 32 Q75 52 71 58 Q74 63 69 64 Q56 68 53 54Z" fill="#6faeff"/>
    <path d="M33 55 L33 60 L47 60 L47 55" fill="#ffe8de"/>
    <path d="M33 59 Q40 63 47 59 Q54 61 56 69 L24 69 Q26 61 33 59Z" fill="#c5b9f5"/>
    <path d="M33 60 L40 65 L47 60" fill="#fff"/>
    <path d="M17 27 Q18 14 40 14 Q62 14 63 27 L62 40 Q61 57 40 59 Q19 57 18 40Z" fill="#ffe8de"/>
    <!-- Middle part with hair swept to the sides and an open forehead. -->
    <path d="M40 8 Q20 5 13 22 Q10 30 15 38 L20 32 Q23 21 32 18 Q38 16 40 8Z" fill="#191923"/>
    <path d="M40 8 Q60 5 67 22 Q70 30 65 38 L60 32 Q57 21 48 18 Q42 16 40 8Z" fill="#191923"/>
    <path d="M40 5 L40 10" fill="none" stroke="#ffe8de" stroke-width="1"/>
    <path d="M35 11 Q23 12 18 25 M45 11 Q57 12 62 25" fill="none" stroke="#555566" stroke-width="2"/>
    <!-- Huge sparkling eyes, tiny lashes, and pink cheeks. -->
    <ellipse cx="29" cy="39" rx="6" ry="7.5" fill="#26253e"/>
    <ellipse cx="51" cy="39" rx="6" ry="7.5" fill="#26253e"/>
    <path d="M25 43 Q29 47 33 43 M47 43 Q51 47 55 43" fill="none" stroke="#80baff" stroke-width="2.8"/>
    <path d="M23 35 L21 33 M57 35 L59 33" fill="none"/>
    <g fill="#fff" stroke="none">
      <ellipse cx="27" cy="36" rx="2.4" ry="2.8"/>
      <ellipse cx="49" cy="36" rx="2.4" ry="2.8"/>
      <circle cx="32" cy="40" r="1.3"/>
      <circle cx="54" cy="40" r="1.3"/>
    </g>
    <g fill="#f5a8b9" stroke="none" opacity="0.8">
      <ellipse cx="23" cy="48" rx="5" ry="2.8"/>
      <ellipse cx="57" cy="48" rx="5" ry="2.8"/>
    </g>
    <path d="M36 49 Q40 51 44 49 Q43 55 40 55 Q37 55 36 49Z" fill="#ef94b0" stroke-width="1"/>
    <!-- Front locks cover the ears and curve along the cheeks. -->
    <path d="M13 31 L22 30 Q20 40 24 52 Q26 60 20 64 Q12 59 13 48Z" fill="#6faeff"/>
    <path d="M67 31 L58 30 Q60 40 56 52 Q54 60 60 64 Q68 59 67 48Z" fill="#6faeff"/>
    <path d="M40 8 Q20 5 13 22 Q10 28 13 34 L22 34 Q20 24 32 18 Q38 16 40 8Z" fill="#191923"/>
    <path d="M40 8 Q60 5 67 22 Q70 28 67 34 L58 34 Q60 24 48 18 Q42 16 40 8Z" fill="#191923"/>
    <path d="M35 11 Q23 14 19 27 M45 11 Q57 14 61 27" fill="none" stroke="#555566" stroke-width="2"/>
    <path d="M17 38 Q15 48 20 59 M63 38 Q65 48 60 59" fill="none" stroke="#b9dcff"/>
    <!-- Small heart hair clip. -->
    <path d="M61 22 C54 18 57 13 61 16 C65 12 69 18 61 22Z" fill="#ffadc8" stroke-width="1"/>
  </g>
</svg>
